SplineFontDB: 3.2
FontName: SingScript.sg_one
FullName: SingScript.sg "one" module
FamilyName: SingScript.sg
Weight: Regular
Copyright: Copyright (c) 2025, 05524F.sg (Singapore)
UComments: "2025-7-14: Created with FontForge (http://fontforge.org)"
Version: v2
ItalicAngle: 0
UnderlinePosition: -90
UnderlineWidth: 45
Ascent: 600
Descent: 300
InvalidEm: 0
LayerCount: 2
Layer: 0 0 "Back" 1
Layer: 1 0 "Fore" 0
XUID: [1021 768 647112374 17012]
FSType: 0
OS2Version: 0
OS2_WeightWidthSlopeOnly: 0
OS2_UseTypoMetrics: 1
CreationTime: 1752436236
ModificationTime: 1753065084
PfmFamily: 17
TTFWeight: 400
TTFWidth: 5
LineGap: 73
VLineGap: 0
OS2TypoAscent: 0
OS2TypoAOffset: 1
OS2TypoDescent: 0
OS2TypoDOffset: 1
OS2TypoLinegap: 73
OS2WinAscent: 0
OS2WinAOffset: 1
OS2WinDescent: 0
OS2WinDOffset: 1
HheadAscent: 0
HheadAOffset: 1
HheadDescent: 0
HheadDOffset: 1
OS2Vendor: 'PfEd'
MarkAttachClasses: 1
DEI: 91125
LangName: 1033
Encoding: Custom
UnicodeInterp: none
NameList: AGL For New Fonts
DisplaySize: -48
AntiAlias: 1
FitToEm: 0
WidthSeparation: 50
WinInfo: 0 27 6
BeginPrivate: 0
EndPrivate
Grid
0 -208 m 24
 390 -208 610 -208 1000 -208 c 1048
  Spiro
    0 -208 {
    1000 -208 o
    0 0 z
  EndSpiro
0 275 m 24
 390 275 610 275 1000 275 c 1048
  Spiro
    0 275 {
    1000 275 o
    0 0 z
  EndSpiro
0 300 m 24
 390 300 610 300 1000 300 c 1048
  Spiro
    0 300 {
    1000 300 o
    0 0 z
  EndSpiro
0 442 m 24
 390 442 610 442 1000 442 c 1048
  Spiro
    0 442 {
    1000 442 o
    0 0 z
  EndSpiro
0 -233 m 24
 390 -233 610 -233 1000 -233 c 1048
  Spiro
    0 -233 {
    1000 -233 o
    0 0 z
  EndSpiro
0 467 m 24
 390 467 610 467 1000 467 c 1048
  Spiro
    0 467 {
    1000 467 o
    0 0 z
  EndSpiro
EndSplineSet
TeXData: 1 0 0 346030 173015 115343 0 1048576 115343 783286 444596 497025 792723 393216 433062 380633 303038 157286 324010 404750 52429 2506097 1059062 262144
BeginChars: 151 51

StartChar: uni2010
Encoding: 14 8208 14
Width: 293
Flags: HW
HStem: 116 40<25.0066 205.927 209.384 267.238> 129 40<39.0816 252.894>
VStem: 25 243<129.142 155.982>
LayerCount: 2
Fore
SplineSet
208 129 m 0x60
 169 129 108 116 45 116 c 0
 34 116 25 125 25 136 c 0
 25 147 34 156 45 156 c 0xa0
 106 156 164 169 208 169 c 0
 226 169 244 167 259 158 c 0
 265 154 268 148 268 141 c 0
 268 130 259 121 248 121 c 0
 237 121 238 129 208 129 c 0x60
EndSplineSet
EndChar

StartChar: uni2011
Encoding: 15 8209 15
Width: 293
Flags: HW
HStem: 116 40<25.0066 205.927 209.384 267.238> 129 40<39.0816 252.894>
VStem: 25 243<129.142 155.982>
LayerCount: 2
Fore
SplineSet
208 129 m 0x60
 169 129 108 116 45 116 c 0
 34 116 25 125 25 136 c 0
 25 147 34 156 45 156 c 0xa0
 106 156 164 169 208 169 c 0
 226 169 244 167 259 158 c 0
 265 154 268 148 268 141 c 0
 268 130 259 121 248 121 c 0
 237 121 238 129 208 129 c 0x60
EndSplineSet
EndChar

StartChar: figuredash
Encoding: 16 8210 16
Width: 293
Flags: HW
HStem: 116 40<25.0066 205.927 209.384 267.238> 129 40<39.0816 252.894>
VStem: 25 243<129.142 155.982>
LayerCount: 2
Fore
SplineSet
208 129 m 4x60
 169 129 108 116 45 116 c 4
 34 116 25 125 25 136 c 4
 25 147 34 156 45 156 c 4xa0
 106 156 164 169 208 169 c 4
 226 169 244 167 259 158 c 4
 265 154 268 148 268 141 c 4
 268 130 259 121 248 121 c 4
 237 121 238 129 208 129 c 4x60
EndSplineSet
EndChar

StartChar: endash
Encoding: 17 8211 17
Width: 450
Flags: HW
LayerCount: 2
Fore
SplineSet
365 129 m 0x60
 326 129 108 116 45 116 c 0
 34 116 25 125 25 136 c 0
 25 147 34 156 45 156 c 0xa0
 106 156 321 169 365 169 c 0
 383 169 401 167 416 158 c 0
 422 154 425 148 425 141 c 0
 425 130 416 121 405 121 c 0
 394 121 395 129 365 129 c 0x60
EndSplineSet
EndChar

StartChar: emdash
Encoding: 18 8212 18
Width: 900
Flags: HW
LayerCount: 2
Fore
SplineSet
815 129 m 0x60
 776 129 108 116 45 116 c 0
 34 116 25 125 25 136 c 0
 25 147 34 156 45 156 c 0xa0
 106 156 771 169 815 169 c 0
 833 169 851 167 866 158 c 0
 872 154 875 148 875 141 c 0
 875 130 866 121 855 121 c 0
 844 121 845 129 815 129 c 0x60
EndSplineSet
EndChar

StartChar: uni2015
Encoding: 19 8213 19
Width: 900
Flags: HW
LayerCount: 2
Fore
SplineSet
815 129 m 0x60
 776 129 108 116 45 116 c 0
 34 116 25 125 25 136 c 0
 25 147 34 156 45 156 c 0xa0
 106 156 771 169 815 169 c 0
 833 169 851 167 866 158 c 0
 872 154 875 148 875 141 c 0
 875 130 866 121 855 121 c 0
 844 121 845 129 815 129 c 0x60
EndSplineSet
EndChar

StartChar: uni2016
Encoding: 20 8214 20
Width: 209
Flags: HW
LayerCount: 2
Fore
SplineSet
144 431 m 0xa0
 144 440 144 446 144 447 c 0
 144 458 153 467 164 467 c 0
 175 467 184 459 184 448 c 0
 184 442 184 437 184 431 c 0xa0
 184 316 156 198 154 20 c 0
 154 9 145 0 134 0 c 0
 123 0 114 9 114 20 c 0xc0
 114 170 144 327 144 431 c 0xa0
55 431 m 0xa0
 55 440 55 446 55 447 c 0
 55 458 64 467 75 467 c 0
 86 467 95 459 95 448 c 0
 95 442 95 437 95 431 c 0xa0
 95 316 67 198 65 20 c 0
 65 9 56 0 45 0 c 0
 34 0 25 9 25 20 c 0xc0
 25 170 55 327 55 431 c 0xa0
EndSplineSet
EndChar

StartChar: underscoredbl
Encoding: 21 8215 21
Width: 357
Flags: HW
LayerCount: 2
Fore
SplineSet
232 -96 m 4x40
 182 -96 76 -110 45 -110 c 4
 34 -110 25 -101 25 -90 c 4
 25 -79 33 -70 44 -70 c 4x80
 112 -67 177 -56 232 -56 c 4
 266 -56 296 -60 320 -75 c 4
 326 -79 329 -85 329 -92 c 4
 329 -103 320 -112 309 -112 c 4
 305 -112 301 -111 298 -109 c 4
 285 -101 263 -96 232 -96 c 4x40
235 -11 m 0x40
 185 -11 79 -25 48 -25 c 0
 37 -25 28 -16 28 -5 c 0
 28 6 36 15 47 15 c 0x80
 115 18 180 29 235 29 c 0
 269 29 299 25 323 10 c 0
 329 6 332 0 332 -7 c 0
 332 -18 323 -27 312 -27 c 0
 308 -27 304 -26 301 -24 c 0
 288 -16 266 -11 235 -11 c 0x40
EndSplineSet
EndChar

StartChar: quoteleft
Encoding: 22 8216 22
Width: 146
Flags: HW
HStem: 295 148
VStem: 83 38<295.033 347.17>
LayerCount: 2
Fore
SplineSet
62 433 m 5
 88 390 100 366 119 323 c 4
 120 321 121 318 121 315 c 4
 121 304 112 295 101 295 c 4
 93 295 86 300 83 307 c 4
 64 350 54 370 28 413 c 4
 26 416 25 419 25 423 c 4
 25 434 34 443 45 443 c 4
 57 443 62 433 62 433 c 5
EndSplineSet
EndChar

StartChar: quoteright
Encoding: 23 8217 23
Width: 146
Flags: HW
HStem: 295 148
VStem: 25 38<295.033 347.17>
LayerCount: 2
Fore
SplineSet
84 433 m 5
 84 433 89 443 101 443 c 4
 112 443 121 434 121 423 c 4
 121 419 120 416 118 413 c 4
 92 370 82 350 63 307 c 4
 60 300 53 295 45 295 c 4
 34 295 25 304 25 315 c 4
 25 318 26 321 27 323 c 4
 46 366 58 390 84 433 c 5
EndSplineSet
EndChar

StartChar: quotesinglbase
Encoding: 24 8218 24
Width: 146
Flags: HW
HStem: -68 148
VStem: 25 38<-67.9674 -15.8302>
LayerCount: 2
Fore
SplineSet
84 70 m 1
 84 70 89 80 101 80 c 0
 112 80 121 71 121 60 c 0
 121 56 120 53 118 50 c 0
 92 7 82 -13 63 -56 c 0
 60 -63 53 -68 45 -68 c 0
 34 -68 25 -59 25 -48 c 0
 25 -45 26 -42 27 -40 c 0
 46 3 58 27 84 70 c 1
EndSplineSet
EndChar

StartChar: quotereversed
Encoding: 25 8219 25
Width: 146
Flags: HW
HStem: 295 148
VStem: 83 38<295.033 347.17>
LayerCount: 2
Fore
SplineSet
62 433 m 1
 88 390 100 366 119 323 c 0
 120 321 121 318 121 315 c 0
 121 304 112 295 101 295 c 0
 93 295 86 300 83 307 c 0
 64 350 54 370 28 413 c 0
 26 416 25 419 25 423 c 0
 25 434 34 443 45 443 c 0
 57 443 62 433 62 433 c 1
EndSplineSet
EndChar

StartChar: quotedblleft
Encoding: 26 8220 26
Width: 252
Flags: HW
LayerCount: 2
Fore
SplineSet
168 433 m 5
 194 390 206 366 225 323 c 4
 226 321 227 318 227 315 c 4
 227 304 218 295 207 295 c 4
 199 295 192 300 189 307 c 4
 170 350 160 370 134 413 c 4
 132 416 131 419 131 423 c 4
 131 434 140 443 151 443 c 4
 163 443 168 433 168 433 c 5
62 433 m 1
 88 390 100 366 119 323 c 0
 120 321 121 318 121 315 c 0
 121 304 112 295 101 295 c 0
 93 295 86 300 83 307 c 0
 64 350 54 370 28 413 c 0
 26 416 25 419 25 423 c 0
 25 434 34 443 45 443 c 0
 57 443 62 433 62 433 c 1
EndSplineSet
EndChar

StartChar: quotedblright
Encoding: 27 8221 27
Width: 248
Flags: HW
HStem: 295 148
VStem: 25 38<295.033 347.17> 127 38<295.033 347.17>
LayerCount: 2
Fore
SplineSet
203 443 m 0
 214 443 223 434 223 423 c 0
 223 419 222 416 220 413 c 0
 194 370 184 350 165 307 c 0
 162 300 155 295 147 295 c 0
 136 295 127 304 127 315 c 0
 127 318 128 321 129 323 c 0
 148 366 160 390 186 433 c 0
 189 439 196 443 203 443 c 0
84 433 m 1
 84 433 89 443 101 443 c 0
 112 443 121 434 121 423 c 0
 121 419 120 416 118 413 c 0
 92 370 82 350 63 307 c 0
 60 300 53 295 45 295 c 0
 34 295 25 304 25 315 c 0
 25 318 26 321 27 323 c 0
 46 366 58 390 84 433 c 1
EndSplineSet
EndChar

StartChar: quotedblbase
Encoding: 28 8222 28
Width: 248
Flags: HW
HStem: 295 148
VStem: 34 38<295.033 347.17> 136 38<295.033 347.17>
LayerCount: 2
Fore
SplineSet
203 71 m 4
 214 71 223 62 223 51 c 4
 223 47 222 44 220 41 c 4
 194 -2 184 -22 165 -65 c 4
 162 -72 155 -77 147 -77 c 4
 136 -77 127 -68 127 -57 c 4
 127 -54 128 -51 129 -49 c 4
 148 -6 160 18 186 61 c 4
 189 67 196 71 203 71 c 4
84 61 m 5
 84 61 89 71 101 71 c 4
 112 71 121 62 121 51 c 4
 121 47 120 44 118 41 c 4
 92 -2 82 -22 63 -65 c 4
 60 -72 53 -77 45 -77 c 4
 34 -77 25 -68 25 -57 c 4
 25 -54 26 -51 27 -49 c 4
 46 -6 58 18 84 61 c 5
EndSplineSet
EndChar

StartChar: uni201F
Encoding: 29 8223 29
Width: 252
Flags: HW
LayerCount: 2
Fore
SplineSet
168 433 m 5
 194 390 206 366 225 323 c 4
 226 321 227 318 227 315 c 4
 227 304 218 295 207 295 c 4
 199 295 192 300 189 307 c 4
 170 350 160 370 134 413 c 4
 132 416 131 419 131 423 c 4
 131 434 140 443 151 443 c 4
 163 443 168 433 168 433 c 5
62 433 m 1
 88 390 100 366 119 323 c 0
 120 321 121 318 121 315 c 0
 121 304 112 295 101 295 c 0
 93 295 86 300 83 307 c 0
 64 350 54 370 28 413 c 0
 26 416 25 419 25 423 c 0
 25 434 34 443 45 443 c 0
 57 443 62 433 62 433 c 1
EndSplineSet
EndChar

StartChar: bullet
Encoding: 30 8226 30
Width: 117
Flags: HW
LayerCount: 2
Fore
SplineSet
63 175 m 4
 79 175 92 162 92 144 c 4
 92 121 72 110 56 110 c 4
 43 110 25 119 25 139 c 4
 25 158 42 175 63 175 c 4
EndSplineSet
EndChar

StartChar: onedotenleader
Encoding: 31 8228 31
Width: 117
Flags: HW
LayerCount: 2
Fore
SplineSet
63 65 m 4
 79 65 92 52 92 34 c 4
 92 11 72 0 56 0 c 4
 43 0 25 9 25 29 c 4
 25 48 42 65 63 65 c 4
EndSplineSet
EndChar

StartChar: twodotenleader
Encoding: 32 8229 32
Width: 241
Flags: HW
LayerCount: 2
Fore
SplineSet
187 64 m 4
 203 64 216 51 216 33 c 4
 216 10 196 -1 180 -1 c 4
 167 -1 149 8 149 28 c 4
 149 47 166 64 187 64 c 4
63 65 m 0
 79 65 92 52 92 34 c 0
 92 11 72 0 56 0 c 0
 43 0 25 9 25 29 c 0
 25 48 42 65 63 65 c 0
EndSplineSet
EndChar

StartChar: ellipsis
Encoding: 33 8230 33
Width: 367
Flags: HW
LayerCount: 2
Fore
SplineSet
313 65 m 4
 329 65 342 52 342 34 c 4
 342 11 322 0 306 0 c 4
 293 0 275 9 275 29 c 4
 275 48 292 65 313 65 c 4
187 65 m 0
 203 65 216 52 216 34 c 0
 216 11 196 0 180 0 c 0
 167 0 149 9 149 29 c 0
 149 48 166 65 187 65 c 0
63 65 m 0
 79 65 92 52 92 34 c 0
 92 11 72 0 56 0 c 0
 43 0 25 9 25 29 c 0
 25 48 42 65 63 65 c 0
EndSplineSet
EndChar

StartChar: uni2027
Encoding: 34 8231 34
Width: 117
Flags: HW
LayerCount: 2
Fore
SplineSet
63 175 m 4
 79 175 92 162 92 144 c 4
 92 121 72 110 56 110 c 4
 43 110 25 119 25 139 c 4
 25 158 42 175 63 175 c 4
EndSplineSet
EndChar

StartChar: perthousand
Encoding: 36 8240 36
Width: 566
Flags: HW
LayerCount: 2
Fore
SplineSet
437 74 m 4xf340
 437 68 437 68 440 67 c 4
 446 65 450 64 452 64 c 4
 458 64 463 69 477 88 c 4
 479 90 481 93 483 96 c 4
 493 110 501 134 501 148 c 4
 501 149 501 150 501 151 c 5
 487 145 465 125 448 103 c 4
 441 94 437 81 437 74 c 4xf340
506 192 m 4
 513 192 541 190 541 148 c 4
 541 123 531 94 515 72 c 4
 513 70 512 67 510 65 c 4
 499 49 483 24 452 24 c 4
 443 24 433 27 424 31 c 4
 404 39 397 58 397 74 c 4
 397 94 405 113 416 127 c 4
 432 148 472 192 506 192 c 4
255 77 m 0xf340
 255 71 255 71 258 70 c 0
 264 68 268 67 270 67 c 0
 276 67 281 72 295 91 c 0
 297 93 299 96 301 99 c 0
 311 113 319 137 319 151 c 0
 319 152 319 153 319 154 c 1
 305 148 283 128 266 106 c 0
 259 97 255 84 255 77 c 0xf340
324 195 m 0
 331 195 359 193 359 151 c 0
 359 126 349 97 333 75 c 0
 331 73 330 70 328 68 c 0
 317 52 301 27 270 27 c 0
 261 27 251 30 242 34 c 0
 222 42 215 61 215 77 c 0
 215 97 223 116 234 130 c 0
 250 151 290 195 324 195 c 0
331 467 m 0
 342 467 351 458 351 447 c 0
 351 445 351 442 350 440 c 0
 311 329 118 88 102 16 c 0
 100 7 92 0 82 0 c 0
 71 0 62 9 62 20 c 0
 62 26 66 47 99 104 c 0
 159 206 284 375 312 454 c 0xf780
 315 462 322 467 331 467 c 0
132 438 m 0
 164 438 192 415 192 379 c 0
 192 353 180 328 168 307 c 0
 147 270 120 228 81 228 c 0
 56 228 25 247 25 299 c 0xfb
 25 329 35 360 48 382 c 0
 66 413 97 438 132 438 c 0
132 398 m 0
 117 398 95 384 82 362 c 0
 73 346 65 320 65 299 c 0
 65 279 71 271 77 269 c 0
 79 268 80 268 81 268 c 0
 85 268 93 272 103 282 c 0
 115 294 126 313 134 327 c 0
 144 345 152 366 152 379 c 0
 152 388 149 392 143 395 c 0
 139 397 136 398 132 398 c 0
EndSplineSet
EndChar

StartChar: uni2031
Encoding: 37 8241 37
Width: 750
Flags: HW
LayerCount: 2
Fore
SplineSet
621 72 m 4xf340
 621 66 621 66 624 65 c 4
 630 63 634 62 636 62 c 4
 642 62 647 67 661 86 c 4
 663 88 665 91 667 94 c 4
 677 108 685 132 685 146 c 4
 685 147 685 148 685 149 c 5
 671 143 649 123 632 101 c 4
 625 92 621 79 621 72 c 4xf340
690 190 m 4
 697 190 725 188 725 146 c 4
 725 121 715 92 699 70 c 4
 697 68 696 65 694 63 c 4
 683 47 667 22 636 22 c 4
 627 22 617 25 608 29 c 4
 588 37 581 56 581 72 c 4
 581 92 589 111 600 125 c 4
 616 146 656 190 690 190 c 4
437 74 m 0xf340
 437 68 437 68 440 67 c 0
 446 65 450 64 452 64 c 0
 458 64 463 69 477 88 c 0
 479 90 481 93 483 96 c 0
 493 110 501 134 501 148 c 0
 501 149 501 150 501 151 c 1
 487 145 465 125 448 103 c 0
 441 94 437 81 437 74 c 0xf340
506 192 m 0
 513 192 541 190 541 148 c 0
 541 123 531 94 515 72 c 0
 513 70 512 67 510 65 c 0
 499 49 483 24 452 24 c 0
 443 24 433 27 424 31 c 0
 404 39 397 58 397 74 c 0
 397 94 405 113 416 127 c 0
 432 148 472 192 506 192 c 0
255 77 m 0xf340
 255 71 255 71 258 70 c 0
 264 68 268 67 270 67 c 0
 276 67 281 72 295 91 c 0
 297 93 299 96 301 99 c 0
 311 113 319 137 319 151 c 0
 319 152 319 153 319 154 c 1
 305 148 283 128 266 106 c 0
 259 97 255 84 255 77 c 0xf340
324 195 m 0
 331 195 359 193 359 151 c 0
 359 126 349 97 333 75 c 0
 331 73 330 70 328 68 c 0
 317 52 301 27 270 27 c 0
 261 27 251 30 242 34 c 0
 222 42 215 61 215 77 c 0
 215 97 223 116 234 130 c 0
 250 151 290 195 324 195 c 0
331 467 m 0
 342 467 351 458 351 447 c 0
 351 445 351 442 350 440 c 0
 311 329 118 88 102 16 c 0
 100 7 92 0 82 0 c 0
 71 0 62 9 62 20 c 0
 62 26 66 47 99 104 c 0
 159 206 284 375 312 454 c 0xf780
 315 462 322 467 331 467 c 0
132 438 m 0
 164 438 192 415 192 379 c 0
 192 353 180 328 168 307 c 0
 147 270 120 228 81 228 c 0
 56 228 25 247 25 299 c 0xfb
 25 329 35 360 48 382 c 0
 66 413 97 438 132 438 c 0
132 398 m 0
 117 398 95 384 82 362 c 0
 73 346 65 320 65 299 c 0
 65 279 71 271 77 269 c 0
 79 268 80 268 81 268 c 0
 85 268 93 272 103 282 c 0
 115 294 126 313 134 327 c 0
 144 345 152 366 152 379 c 0
 152 388 149 392 143 395 c 0
 139 397 136 398 132 398 c 0
EndSplineSet
EndChar

StartChar: minute
Encoding: 38 8242 38
Width: 146
Flags: HW
HStem: 295 148
VStem: 25 38<295.033 347.17>
LayerCount: 2
Fore
SplineSet
84 433 m 5
 84 433 89 443 101 443 c 4
 112 443 121 434 121 423 c 4
 121 419 120 416 118 413 c 4
 92 370 82 350 63 307 c 4
 60 300 53 295 45 295 c 4
 34 295 25 304 25 315 c 4
 25 318 26 321 27 323 c 4
 46 366 58 390 84 433 c 5
EndSplineSet
EndChar

StartChar: second
Encoding: 39 8243 39
Width: 248
Flags: HW
HStem: 295 148
VStem: 25 38<295.033 347.17> 127 38<295.033 347.17>
LayerCount: 2
Fore
SplineSet
203 443 m 0
 214 443 223 434 223 423 c 0
 223 419 222 416 220 413 c 0
 194 370 184 350 165 307 c 0
 162 300 155 295 147 295 c 0
 136 295 127 304 127 315 c 0
 127 318 128 321 129 323 c 0
 148 366 160 390 186 433 c 0
 189 439 196 443 203 443 c 0
84 433 m 1
 84 433 89 443 101 443 c 0
 112 443 121 434 121 423 c 0
 121 419 120 416 118 413 c 0
 92 370 82 350 63 307 c 0
 60 300 53 295 45 295 c 0
 34 295 25 304 25 315 c 0
 25 318 26 321 27 323 c 0
 46 366 58 390 84 433 c 1
EndSplineSet
EndChar

StartChar: uni2034
Encoding: 40 8244 40
Width: 356
Flags: HW
HStem: 295 148
VStem: 25 38<295.033 347.17> 127 38<295.033 347.17>
LayerCount: 2
Fore
SplineSet
294 432 m 5
 294 432 299 442 311 442 c 4
 322 442 331 433 331 422 c 4
 331 418 330 415 328 412 c 4
 302 369 292 349 273 306 c 4
 270 299 263 294 255 294 c 4
 244 294 235 303 235 314 c 4
 235 317 236 320 237 322 c 4
 256 365 268 389 294 432 c 5
203 443 m 0
 214 443 223 434 223 423 c 0
 223 419 222 416 220 413 c 0
 194 370 184 350 165 307 c 0
 162 300 155 295 147 295 c 0
 136 295 127 304 127 315 c 0
 127 318 128 321 129 323 c 0
 148 366 160 390 186 433 c 0
 189 439 196 443 203 443 c 0
84 433 m 1
 84 433 89 443 101 443 c 0
 112 443 121 434 121 423 c 0
 121 419 120 416 118 413 c 0
 92 370 82 350 63 307 c 0
 60 300 53 295 45 295 c 0
 34 295 25 304 25 315 c 0
 25 318 26 321 27 323 c 0
 46 366 58 390 84 433 c 1
EndSplineSet
EndChar

StartChar: uni2035
Encoding: 41 8245 41
Width: 146
Flags: HW
HStem: 295 148
VStem: 83 38<295.033 347.17>
LayerCount: 2
Fore
SplineSet
62 433 m 5
 88 390 100 366 119 323 c 4
 120 321 121 318 121 315 c 4
 121 304 112 295 101 295 c 4
 93 295 86 300 83 307 c 4
 64 350 54 370 28 413 c 4
 26 416 25 419 25 423 c 4
 25 434 34 443 45 443 c 4
 57 443 62 433 62 433 c 5
EndSplineSet
EndChar

StartChar: uni2036
Encoding: 42 8246 42
Width: 252
Flags: HW
LayerCount: 2
Fore
SplineSet
168 433 m 5
 194 390 206 366 225 323 c 4
 226 321 227 318 227 315 c 4
 227 304 218 295 207 295 c 4
 199 295 192 300 189 307 c 4
 170 350 160 370 134 413 c 4
 132 416 131 419 131 423 c 4
 131 434 140 443 151 443 c 4
 163 443 168 433 168 433 c 5
62 433 m 1
 88 390 100 366 119 323 c 0
 120 321 121 318 121 315 c 0
 121 304 112 295 101 295 c 0
 93 295 86 300 83 307 c 0
 64 350 54 370 28 413 c 0
 26 416 25 419 25 423 c 0
 25 434 34 443 45 443 c 0
 57 443 62 433 62 433 c 1
EndSplineSet
EndChar

StartChar: uni2037
Encoding: 43 8247 43
Width: 363
Flags: HW
LayerCount: 2
Fore
SplineSet
279 433 m 5
 305 390 317 366 336 323 c 4
 337 321 338 318 338 315 c 4
 338 304 329 295 318 295 c 4
 310 295 303 300 300 307 c 4
 281 350 271 370 245 413 c 4
 243 416 242 419 242 423 c 4
 242 434 251 443 262 443 c 4
 274 443 279 433 279 433 c 5
168 433 m 1
 194 390 206 366 225 323 c 0
 226 321 227 318 227 315 c 0
 227 304 218 295 207 295 c 0
 199 295 192 300 189 307 c 0
 170 350 160 370 134 413 c 0
 132 416 131 419 131 423 c 0
 131 434 140 443 151 443 c 0
 163 443 168 433 168 433 c 1
62 433 m 1
 88 390 100 366 119 323 c 0
 120 321 121 318 121 315 c 0
 121 304 112 295 101 295 c 0
 93 295 86 300 83 307 c 0
 64 350 54 370 28 413 c 0
 26 416 25 419 25 423 c 0
 25 434 34 443 45 443 c 0
 57 443 62 433 62 433 c 1
EndSplineSet
EndChar

StartChar: uni2038
Encoding: 44 8248 44
Width: 270
Flags: HW
HStem: 364 40<115.384 168.904>
VStem: 30 38<260.026 304.639>
LayerCount: 2
Fore
SplineSet
45 -144 m 0
 34 -144 25 -135 25 -124 c 0
 25 -121 26 -118 27 -115 c 0
 49 -69 88 -5 133 0 c 0
 136 0 138 0 141 0 c 0
 203 0 206 -77 239 -110 c 0
 243 -114 245 -118 245 -124 c 0
 245 -135 236 -144 225 -144 c 0
 219 -144 215 -142 211 -138 c 0
 173 -100 169 -40 141 -40 c 0
 118 -40 86 -85 63 -133 c 0
 60 -140 53 -144 45 -144 c 0
EndSplineSet
EndChar

StartChar: uni2043
Encoding: 45 8259 45
Width: 293
Flags: HW
HStem: 116 40<25.0066 205.927 209.384 267.238> 129 40<39.0816 252.894>
VStem: 25 243<129.142 155.982>
LayerCount: 2
Fore
SplineSet
208 129 m 0x60
 169 129 108 116 45 116 c 0
 34 116 25 125 25 136 c 0
 25 147 34 156 45 156 c 0xa0
 106 156 164 169 208 169 c 0
 226 169 244 167 259 158 c 0
 265 154 268 148 268 141 c 0
 268 130 259 121 248 121 c 0
 237 121 238 129 208 129 c 0x60
EndSplineSet
EndChar

StartChar: fraction
Encoding: 46 8260 46
Width: 287
Flags: HW
HStem: 447 20G<236.5 247.5>
VStem: 25 237
LayerCount: 2
Fore
SplineSet
226 459 m 1
 226 459 231 467 242 467 c 0
 253 467 262 458 262 447 c 0
 262 443 260 438 258 435 c 0
 193 345 142 111 61 8 c 0
 57 3 51 0 45 0 c 0
 34 0 25 9 25 20 c 0
 25 25 26 29 29 32 c 0
 104 127 157 363 226 459 c 1
EndSplineSet
EndChar

StartChar: uni204E
Encoding: 47 8270 47
Width: 282
Flags: HW
HStem: 305 40<23.0066 85.9775>
VStem: 109 40<335 393.648> 118 40<336.026 433.941>
LayerCount: 2
Fore
SplineSet
120 211 m 4xa0
 120 221 119 227 119 230 c 4
 119 241 128 250 139 250 c 4
 149 250 158 243 159 233 c 4
 160 225 160 218 160 211 c 4xa0
 160 182 151 163 151 147 c 4
 151 146 151 146 151 145 c 5
 207 161 223 184 237 184 c 4
 248 184 257 175 257 164 c 4
 257 157 254 151 248 147 c 4
 224 132 203 121 178 112 c 5
 198 96 214 78 233 64 c 5
 233 64 241 59 241 48 c 4
 241 37 232 28 221 28 c 4
 213 28 208 31 177 60 c 4
 160 76 145 89 126 97 c 5
 107 73 92 54 67 30 c 4
 63 27 58 24 53 24 c 4
 42 24 33 33 33 44 c 4
 33 60 43 56 89 114 c 5
 67 117 57 119 42 121 c 4
 32 122 25 131 25 141 c 4
 25 152 34 161 45 161 c 4
 46 161 47 161 48 161 c 4
 66 158 110 151 111 151 c 4xc0
 112 173 120 188 120 211 c 4xa0
EndSplineSet
EndChar

StartChar: uni2053
Encoding: 48 8275 48
Width: 379
Flags: HW
HStem: 106 40<226.937 275.886> 166 40<96.8672 189.558>
LayerCount: 2
Fore
SplineSet
45 114 m 4
 34 114 25 123 25 134 c 4
 25 141 28 147 34 151 c 4
 62 169 79 186 107 197 c 4
 122 203 139 206 161 206 c 4
 189 206 200 198 223 170 c 4
 237 153 245 146 253 146 c 4
 258 146 271 159 279 169 c 4
 291 185 305 205 317 225 c 4
 321 231 327 235 334 235 c 4
 345 235 354 226 354 215 c 4
 354 211 353 208 351 205 c 4
 314 144 286 106 253 106 c 4
 221 106 204 130 192 144 c 4
 174 166 173 166 161 166 c 4
 123 166 108 155 84 137 c 4
 53 114 51 114 45 114 c 4
EndSplineSet
EndChar

StartChar: uni2057
Encoding: 49 8279 49
Width: 463
Flags: HW
HStem: 295 148
VStem: 25 38<295.033 347.17> 127 38<295.033 347.17>
LayerCount: 2
Fore
SplineSet
401 432 m 5
 401 432 406 442 418 442 c 4
 429 442 438 433 438 422 c 4
 438 418 437 415 435 412 c 4
 409 369 399 349 380 306 c 4
 377 299 370 294 362 294 c 4
 351 294 342 303 342 314 c 4
 342 317 343 320 344 322 c 4
 363 365 375 389 401 432 c 5
294 432 m 1
 294 432 299 442 311 442 c 0
 322 442 331 433 331 422 c 0
 331 418 330 415 328 412 c 0
 302 369 292 349 273 306 c 0
 270 299 263 294 255 294 c 0
 244 294 235 303 235 314 c 0
 235 317 236 320 237 322 c 0
 256 365 268 389 294 432 c 1
203 443 m 0
 214 443 223 434 223 423 c 0
 223 419 222 416 220 413 c 0
 194 370 184 350 165 307 c 0
 162 300 155 295 147 295 c 0
 136 295 127 304 127 315 c 0
 127 318 128 321 129 323 c 0
 148 366 160 390 186 433 c 0
 189 439 196 443 203 443 c 0
84 433 m 1
 84 433 89 443 101 443 c 0
 112 443 121 434 121 423 c 0
 121 419 120 416 118 413 c 0
 92 370 82 350 63 307 c 0
 60 300 53 295 45 295 c 0
 34 295 25 304 25 315 c 0
 25 318 26 321 27 323 c 0
 46 366 58 390 84 433 c 1
EndSplineSet
EndChar

StartChar: uni205D
Encoding: 50 8285 50
Width: 121
Flags: HW
LayerCount: 2
Fore
SplineSet
67 274 m 0
 83 274 96 261 96 243 c 0
 96 220 76 209 60 209 c 0
 47 209 29 218 29 238 c 0
 29 257 46 274 67 274 c 0
63 65 m 0
 79 65 92 52 92 34 c 0
 92 11 72 0 56 0 c 0
 43 0 25 9 25 29 c 0
 25 48 42 65 63 65 c 0
65 170 m 0
 81 170 94 157 94 139 c 0
 94 116 74 105 58 105 c 0
 45 105 27 114 27 134 c 0
 27 153 44 170 65 170 c 0
EndSplineSet
EndChar
